# xmcd CD database file
#
# Track frame offsets:
#	150
#	21399
#	41902
#	62152
#
# Disc length: 1058 seconds
#
# Revision: 0
# Processed by: cddbd v1.5.1PL0 Copyright (c) Steve Scherf et al.
# Submitted via: CDex 1.51
#
DISCID=35042004
DTITLE=orangenoise shortcut - エイプリルズ - orangenoise shortcut - エイプリルズ
DYEAR=2004
DGENRE=Pop
TTITLE0=Melt into the sky
TTITLE1=タイム・アフター・タイム
TTITLE2=3度の引用句
TTITLE3=ラムのラブソング
EXTD=YEAR: 2004
EXTT0=
EXTT1=
EXTT2=
EXTT3=
PLAYORDER=
